<svg viewBox="0 0 242.1 124" height="50">
   <g>
  <title>Layer 1</title>
  <path stroke="#000" fill="none" id="svg_2" d="m35.02578,47.85534c0,-1.2217 -0.17892,-1.40062 -0.61085,-1.83257c-0.43194,-0.43194 0.43194,-1.40062 0,-1.83257c-0.43194,-0.43194 -0.89111,-1.03445 -1.22172,-1.83257c-0.23376,-0.56436 -0.78977,-2.01149 -1.2217,-2.44342c-0.43194,-0.43194 -0.89111,-0.42358 -1.22172,-1.2217c-0.23376,-0.56436 -1.22172,-0.61085 -1.22172,-1.83257c0,-0.61085 -0.17892,-0.78977 -0.61085,-1.22172c-0.43194,-0.43194 -0.35783,-0.35783 -1.2217,-1.2217c-0.43194,-0.43194 -1.40062,-0.17892 -1.83257,-0.61085c-0.43194,-0.43194 -1.22172,0 -2.44342,0c-0.61085,0 -0.61085,-0.61085 -1.22172,-0.61085c-0.61085,0 -1.22172,0 -2.44342,0c-0.61085,0 -1.22172,0 -2.44342,0c-0.61085,0 -1.22172,0 -1.83257,0c-0.61085,0 -0.96868,-0.25302 -1.83257,0.61085c-0.43194,0.43194 -0.61085,0.61085 -0.61085,1.2217c0,0.61085 0.03144,0.79331 -0.61085,1.83257c-0.71811,1.16192 -0.35783,1.57955 -1.2217,2.44342c-0.43194,0.43194 -0.17892,0.78977 -0.61085,1.22172c-0.43194,0.43194 -0.61085,0.61085 -0.61085,1.22172c0,1.22172 0,1.83257 0,2.44342c0,1.22172 0,1.83257 0,2.44342c0,0.61085 0.61085,0.61085 0.61085,1.2217c0,1.22172 0.61085,1.22172 0.61085,1.83257c0,0.61085 -0.25302,0.96868 0.61085,1.83257c0.43194,0.43194 0.96868,-0.25302 1.83257,0.61085c0.43194,0.43194 0.89111,0.4236 1.22172,1.22172c0.23376,0.56436 0.35783,0.96868 1.2217,1.83257c0.43194,0.43194 0.78977,0.17891 1.22172,0.61085c0.43194,0.43194 -0.25302,0.96868 0.61085,1.83257c0.43194,0.43194 0.96868,-0.25302 1.83257,0.61085c0.43194,0.43194 0.42358,0.89111 1.2217,1.22172c1.12872,0.46754 1.22172,0.61085 1.83257,0.61085c0.61085,0 0.65736,0.98794 1.22172,1.22172c0.79812,0.33058 1.83257,0.61085 1.2217,0.61085c-0.61085,0 -1.83257,0 -2.44342,0c-0.61085,0 -0.61085,-0.61085 -1.22172,-0.61085c-0.61085,0 -1.83257,0 -2.44342,0c-0.61085,0 -1.40062,0.17892 -1.83257,0.61085c-0.43194,0.43194 -1.40062,0.17892 -1.83257,0.61085c-0.86389,0.86389 -0.17892,1.40062 -0.61085,1.83257c-0.86389,0.86389 -1.40062,0.17892 -1.83257,0.61085c-0.43194,0.43194 -1.11446,0.0598 -1.83257,1.22172c-0.64229,1.03925 -0.17892,1.40062 -0.61085,1.83257c-0.43194,0.43194 -0.78977,0.17891 -1.22172,0.61085c-0.86389,0.86389 -0.17892,2.01149 -0.61085,2.44342c-0.86389,0.86387 -1.50196,0.4236 -1.83257,1.22172c-0.46754,1.12871 -0.28971,1.31293 -0.61085,1.83257c-0.71811,1.1619 -0.78977,2.01147 -1.22172,2.44342c-0.43194,0.43194 -0.61085,0.61087 -0.61085,1.22172c0,0.61087 0,1.83257 0,2.44342c0,0.61085 0.61085,0.61085 0.61085,1.83257c0,0.61087 0.17892,0.78977 0.61085,1.22172c0.43194,0.43194 0.17891,0.78977 0.61085,1.22172c0.86387,0.86387 1.40062,0.78977 1.83257,1.22172c0.43194,0.43193 0.17891,0.78977 0.61085,1.22172c0.86389,0.86387 1.22172,1.2217 1.83257,1.2217c0.61085,0 1.23805,-0.14034 1.83257,0c1.32937,0.31382 1.83257,0.61087 2.44342,0.61087c1.2217,0 1.83257,0 2.44342,0c0.61085,0 1.22172,0 2.44342,0c0.61085,0 0.61085,-0.61087 1.2217,-0.61087c1.22172,0 1.22172,-0.61085 1.83257,-0.61085c0.61085,0 0.78977,-0.17891 1.22172,-0.61085c0.86389,-0.86387 0.50318,-1.51874 1.83257,-1.83257c0.59452,-0.14034 0.78977,-0.17891 1.22172,-0.61085c0.86389,-0.86387 0.98796,-1.26821 1.22172,-1.83257c0.33058,-0.79812 1.08136,-1.23805 1.2217,-1.83257c0.31382,-1.32939 0.89111,-1.6453 1.22172,-2.44342c0.46754,-1.12871 1.22172,-1.22172 1.22172,-1.83257c0,-0.61085 0.61085,-0.61085 0.61085,-1.22172c0,-0.61085 0.61085,-0.61085 0.61085,-1.83257c0,-0.61085 1.22172,-0.61085 1.22172,-1.22172c0,-1.22172 0.17892,-1.40062 0.61085,-1.83257c0.43194,-0.43193 -0.43194,-1.40062 0,-1.83257c0.43194,-0.43194 0.61085,-1.2217 0.61085,-1.83257c0,-0.61085 -0.43194,-2.01149 0,-2.44342c0.43194,-0.43194 0.89111,0.4236 1.22172,1.22172c0.23376,0.56436 0,1.83257 0,2.44342c0,0.61085 1.2217,0.61085 1.2217,1.83257c0,0.61085 0,1.2217 0,1.83257c0,0.61085 0.61085,1.83257 0.61085,2.44342c0,0.61085 0.17892,2.01147 0.61085,2.44342c0.86389,0.86387 1.50196,0.4236 1.83257,1.22172c0.23376,0.56436 -0.25302,0.96868 0.61085,1.83257c0.43194,0.43194 0.78977,0.17892 1.22172,0.61087c0.43194,0.43193 0.35783,0.96868 1.22172,1.83257c0.43194,0.43194 1.57953,-0.25302 2.44342,0.61087c0.43194,0.43193 0.78977,0.17891 1.22172,0.61085c0.43194,0.43193 0.6272,0.47051 1.22172,0.61085c1.32937,0.31382 1.83257,0.61087 2.44342,0.61087c1.22172,0 1.83257,0 2.44342,0c0.61085,0 1.40416,0.6423 2.44342,0c1.1619,-0.71811 0.78977,-1.40062 1.22172,-1.83257c0.86387,-0.86387 1.40062,-0.17892 1.83257,-0.61087c0.43193,-0.43193 0.14331,-1.31471 0.61085,-2.44342c0.3306,-0.79812 0.14333,-1.31469 0.61087,-2.44342c0.33058,-0.79812 0.61085,-1.22172 0.61085,-1.83257c0,-0.61085 0,-1.83257 0,-2.44342c0,-0.61087 0,-1.83257 0,-2.44342c0,-0.61085 0,-1.22172 0,-1.83257c0,-1.2217 -0.35783,-0.96868 -1.22172,-1.83257c-0.43194,-0.43194 -0.61085,-1.83257 -0.61085,-2.44342c0,-0.61085 -0.61085,-0.61085 -0.61085,-1.2217c0,-0.61085 -0.17892,-1.40062 -0.61087,-1.83257c-0.43194,-0.43194 -0.17891,-0.78977 -0.61085,-1.22172c-0.86389,-0.86389 -1.40062,-0.78977 -1.83257,-1.2217c-0.43194,-0.43194 -0.17892,-0.78977 -0.61085,-1.22172c-0.86389,-0.86389 -1.22172,-0.61085 -1.83257,-0.61085c-0.61085,0 -0.61085,-0.61085 -1.22172,-0.61085c-0.61085,0 -2.01149,0.43194 -2.44342,0c-0.86387,-0.86387 -0.61085,-1.2217 -1.83257,-1.2217c-0.61085,0 -1.22172,0 -0.61085,0c0.61085,0 1.22172,0 1.83257,0c1.2217,0 2.01147,0.43194 2.44342,0c0.43194,-0.43194 0.78977,-0.78977 1.22172,-1.22172c0.43194,-0.43194 0.78977,-0.78977 1.2217,-1.22172c0.43194,-0.43194 0.17892,-0.78977 0.61085,-1.22172c0.43194,-0.43194 2.01147,-0.17891 2.44342,-0.61085c0.43194,-0.43194 -0.25302,-0.96868 0.61087,-1.83257c0.86387,-0.86389 1.40062,-0.17892 1.83257,-0.61085c0.43194,-0.43194 0.14331,-0.70384 0.61085,-1.83257c0.33058,-0.79812 0.78977,-0.78977 1.22172,-1.22172c0.43194,-0.43194 0.35783,-0.35783 1.22172,-1.22172c0.86387,-0.86387 0.17892,-1.40062 0.61087,-1.83257c0.43194,-0.43194 0.28027,-1.6453 0.61085,-2.44342c0.23376,-0.56436 0,-1.2217 0,-1.83257c0,-1.22172 0,-1.83257 0,-2.44342c0,-1.2217 0,-1.83257 0,-2.44342c0,0 -0.35783,0.25302 -1.22172,-0.61085c-0.43194,-0.43194 0.25302,-0.96868 -0.61085,-1.83257c-0.43194,-0.43194 -1.40064,-0.17891 -1.83257,-0.61085c-0.43193,-0.43194 -0.61085,-0.61085 -1.2217,-0.61085c-0.61087,0 -1.22172,0 -2.44342,0c-0.61085,0 -1.22172,0 -2.44342,0c-0.61085,0 -1.2217,0 -1.83257,0c-0.61085,0 -1.83257,0 -2.44342,0c-0.61085,0 -0.96868,0.35783 -1.83257,1.2217c-0.43194,0.43194 -0.78977,0.17892 -1.22172,0.61085c-0.43194,0.43194 -0.78977,0.17892 -1.22172,0.61085c-0.86389,0.86389 -1.03445,1.50198 -1.83257,1.83257c-0.56436,0.23376 -0.96868,-0.25302 -1.83257,0.61085c-0.43194,0.43194 -0.17892,0.78977 -0.61085,1.2217c-0.43194,0.43194 -0.78977,0.78977 -1.2217,1.22172c-0.43194,0.43194 -0.37709,0.65736 -0.61085,1.22172c-0.66119,1.59624 -1.40062,1.40062 -1.83257,1.83257c-0.43194,0.43194 -0.17891,0.78977 -0.61085,1.22172c-0.86389,0.86389 -1.40062,0.17892 -1.83257,0.61085c-0.86389,0.86389 -0.61085,1.83257 -0.61085,2.44342c0,1.22172 -0.61085,1.22172 -0.61085,1.83257l0,0.61085l0,0.61085" stroke-width="3"/>
  <path stroke="#000" fill="none" id="svg_9" d="m82.94079,71.33158c0,-0.27878 -0.08164,-0.36041 -0.27878,-0.55754c-0.39423,-0.39423 -0.13221,-0.59917 -0.27878,-0.83631c-0.32771,-0.53024 -0.63917,-0.36041 -0.83631,-0.55754c-0.19712,-0.19712 0.11545,-0.44207 -0.27878,-0.83631c-0.19712,-0.19712 -0.72083,0.39425 -1.11507,0c-0.19712,-0.19712 -0.27876,-0.27878 -0.55754,-0.27878c-0.55754,0 -0.63917,-0.08164 -0.83631,-0.27878c-0.19712,-0.19712 -0.55754,0 -0.83631,0c-0.55754,0 -0.83631,0 -1.11507,0c-0.55754,0 -0.83631,0 -0.83631,0c-0.27878,0 -0.16331,0.16331 -0.55754,0.55754c-0.19712,0.19712 -0.32119,0.06541 -0.83631,0.27876c-0.36423,0.15087 -0.36041,0.63921 -0.55754,0.83631c-0.19712,0.19712 -0.36041,0.36041 -0.55754,0.55754c-0.19712,0.19712 -0.08164,0.36041 -0.27876,0.55754c-0.19712,0.19712 -0.08165,0.63919 -0.27878,0.83631c-0.19712,0.19712 -0.27878,0.27878 -0.27878,0.83631c0,0.27876 -0.08164,0.36041 -0.27878,0.55754c-0.19712,0.19712 0.39425,0.72083 0,1.11507c-0.39423,0.39423 -0.55754,0.27878 -0.55754,0.55754c0,0.55754 0.10668,0.85752 0,1.11507c-0.15087,0.36423 -0.27878,0.55754 -0.27878,1.11507c0,0.27878 0,0.55754 0,1.11507c0,0.27878 0,0.55754 0,0.83631c0,0.27878 -0.19712,0.91795 0,1.11507c0.19712,0.19712 0.27878,0.27878 0.27878,0.83631c0,0.27878 0.27878,0.27878 0.27878,0.55754c0,0.27878 0.27876,0.55754 0.27876,1.11507c0,0.27878 0.36041,0.36041 0.55754,0.55754c0.19712,0.19712 0.27878,0.55754 0.55754,0.83631c0.27878,0.27878 0.36043,0.36041 0.55754,0.55754c0.39423,0.39423 0.55754,0.27878 0.83631,0.27878c0.27878,0 0.27878,0.55754 0.83631,0.55754c0.27878,0 0.3,0.1721 0.55754,0.27878c0.36423,0.15087 0.16331,0.44207 0.55754,0.83631c0.39423,0.39423 0.63917,0.08164 0.83631,0.27878c0.19712,0.19712 0.63917,0.08164 0.83631,0.27878c0.19712,0.19712 0.3,0.17208 0.55754,0.27876c0.36423,0.15087 0.3866,0.53457 1.11507,0.83631c0.25755,0.10668 0.36041,0.08164 0.55754,0.27878c0.39423,0.39423 0.83631,0 1.11507,0c0.27876,0 0.36041,0.08164 0.55754,0.27878c0.39425,0.39425 0.83631,0 1.11507,0c0.55754,0 0.44207,0.16331 0.83631,0.55754c0.19712,0.19712 0.55754,0 0.83631,0c0.55754,0 0.83631,0.27878 1.11507,0.27878c0.55754,0 0.83631,0 1.11507,0c0.27878,0 0.27878,0.27878 0.55754,0.27878c0.55754,0 0.83631,0 1.11507,0c0.55754,0 0.55754,0.27876 1.11507,0.27876c0.55754,0 1.15751,0.06541 1.67261,0.27878c0.72847,0.30173 0.85752,0.45086 1.11507,0.55754c0.36423,0.15087 0.55754,0.27876 1.11507,0.27876c0.27878,0 0.55754,0 1.11507,0c0.27878,0 0.55754,0 0.83631,0c0.27878,0 0.83631,0 1.11507,0c0.27878,0 0.83631,0 1.39383,0c0.27878,0 0.55754,0 1.11507,0c0.55754,0 1.11507,0 1.39385,0c0.27876,0 0.55754,0 0.83631,0c0.55754,0 0.83631,0 1.11507,0c0.55754,0 0.63919,-0.08164 0.83631,-0.27876c0.19712,-0.19712 0.36041,-0.08164 0.55754,-0.27878c0.19712,-0.19712 0.63917,-0.08164 0.83631,-0.27878c0.19712,-0.19712 0.16331,-0.16331 0.55754,-0.55754c0.39423,-0.39423 0.57876,-0.1721 0.83631,-0.27878c0.36423,-0.15087 0.36041,-0.36041 0.55754,-0.55754c0.19712,-0.19712 0.58483,-0.50859 1.11507,-0.83631c0.23713,-0.14656 0.32121,-0.06541 0.83631,-0.27876c0.36423,-0.15087 0.16331,-0.44207 0.55754,-0.83631c0.19712,-0.19712 0.28623,-0.21472 0.55754,-0.27878c0.60668,-0.14323 0.63917,-0.36041 0.83631,-0.55754c0.19712,-0.19712 0.44207,0.11549 0.83631,-0.27876c0.39425,-0.39425 0.08164,-0.63919 0.27876,-0.83631c0.19712,-0.19712 0.36041,-0.08164 0.55754,-0.27878c0.39423,-0.39423 0.08164,-0.63917 0.27876,-0.83631c0.39425,-0.39425 0.68544,-0.19331 0.83631,-0.55754c0.10666,-0.25753 -0.11547,-0.44207 0.27878,-0.83631c0.39425,-0.39425 0.36041,-0.36041 0.55754,-0.55754c0.19712,-0.19712 0.36041,-0.36041 0.55754,-0.55754c0.19712,-0.19712 0.27878,-0.55754 0.27878,-0.83631c0,-0.27876 0.27876,-0.27876 0.27876,-0.83631c0,-0.27878 0.55754,-0.27878 0.55754,-0.55754c0,-0.55754 0.27878,-0.55754 0.27878,-0.83631c0,-0.27878 0.08164,-0.36043 0.27876,-0.55754c0.19712,-0.19712 0.22983,-0.58482 0.55754,-1.11507c0.14656,-0.23713 0.08164,-0.63919 0.27876,-0.83631c0.19712,-0.19712 -0.10668,-0.57876 0,-0.83631c0.15087,-0.36423 0.27878,-0.83631 0.27878,-1.11507c0,-0.27878 0.27878,-0.27878 0.27878,-0.83631c0,-0.27878 -0.19712,-0.63917 0,-0.83631c0.19712,-0.19712 0.27878,-0.27878 0.27878,-0.83631c0,-0.27878 0,-0.55754 0,-1.11507c0,-0.27878 0.16331,-0.16331 0.55754,-0.55754c0.19712,-0.19712 0,-0.55754 0,-1.11507c0,-0.27878 0,-0.55754 0,-1.11507c0,-0.27878 -0.19712,-0.63919 0,-0.83631c0.19712,-0.19712 0.27878,-0.27878 0.27878,-0.83631c0,-0.27876 0,-0.55754 0,-1.11507c0,-0.27876 0,-0.55754 0,-0.83631c0,-0.27876 0,-0.83631 0,-1.11507c0,-0.27876 0.08164,-0.63919 0.27876,-0.83631c0.19712,-0.19712 0,-0.55754 0,-0.83631c0,-0.27878 0,-0.83631 0,-1.11507c0,-0.27876 0,-0.83631 0,-1.11507c0,-0.27878 0,-0.55754 0,-0.83631c0,-0.55754 0,-0.83631 0,-1.11507c0,-0.55754 0,-0.83631 0,-1.11507c0,-0.27878 0,-0.55754 0,-1.11507c0,-0.27876 0,-0.55754 0,-1.11507c0,-0.27876 0,-0.55754 0,-0.83631c0,-0.27876 0,-0.83631 0,-1.11507c0,-0.27878 0,-0.83631 0,-1.11507c0,-0.27878 0,-0.55754 0,-0.83631c0,-0.55754 0,-0.83631 0,-1.11507c0,-0.55754 0,-0.83631 0,-1.11507c0,-0.27876 0,-0.55754 0,-1.11507c0,-0.27876 0,-0.55754 0,-1.11507c0,-0.27878 0,-0.55754 0,-0.83631c0,-0.27878 0,-0.83631 0,-1.11507c0,-0.27878 0,-0.83631 0,-1.11507c0,-0.27876 0,-0.55754 0,-0.83631c0,-0.55754 0,-0.83631 0,-1.11507c0,-0.55754 0,-0.83631 0,-1.11507c0,-0.27876 0,-0.55754 0,-1.11507c0,-0.27878 0,-0.55754 0,-1.11507c0,-0.27876 0,-0.55754 0,-0.83631c0,-0.27878 -0.55754,-0.27878 -0.55754,-0.83631c0,-0.27878 -0.13555,-0.5084 -0.27878,-1.11507c-0.06405,-0.27132 0,-0.55754 0,-0.83631c0,-0.27878 -0.27876,-0.27878 -0.27876,-0.83631c0,-0.27876 -0.55754,-0.27876 -0.55754,-0.55754c0,-0.55754 -0.08164,-0.63919 -0.27878,-0.83631c-0.19712,-0.19712 -0.27876,-0.27876 -0.55754,-0.27876c-0.27878,0 -0.44207,0.11547 -0.83631,-0.27878c-0.19712,-0.19712 -0.27878,-0.27876 -0.55754,-0.27876c-0.55754,0 -0.55754,-0.55754 -0.83631,-0.55754c-0.27876,0 -0.55754,0 -0.83631,0c-0.55754,0 -0.63919,-0.08165 -0.83631,-0.27876c-0.19712,-0.19712 -0.83631,0 -1.11507,0c-0.27876,0 -0.55754,0 -0.83631,0c-0.55754,0 -0.83631,0 -1.11507,0c-0.55754,0 -0.83631,0 -1.11507,0c-0.27876,0 -0.36041,0.08165 -0.55754,0.27876c-0.39423,0.39423 -0.91795,-0.19712 -1.11507,0c-0.19712,0.19712 -0.55754,0.27878 -0.83631,0.27878c-0.27878,0 -0.27878,0.27876 -0.55754,0.27876c-0.27878,0 -0.32121,0.34417 -0.83631,0.55754c-0.36421,0.15087 -0.36041,0.36041 -0.55754,0.55754c-0.39423,0.39423 -0.63917,0.08164 -0.83631,0.27876c-0.19712,0.19712 0.11547,0.44207 -0.27878,0.83631c-0.19712,0.19712 -0.08165,0.36043 -0.27878,0.55754c-0.19712,0.19712 -0.44207,0.16329 -0.83631,0.55754c-0.19712,0.19712 -0.27876,0.27876 -0.27876,0.55754c0,0.27876 -0.08164,0.36041 -0.27878,0.55754c-0.39425,0.39425 -0.36043,0.63919 -0.55754,0.83631c-0.19712,0.19712 0.11549,0.44207 -0.27876,0.83631c-0.19712,0.19712 -0.1721,0.29999 -0.27878,0.55754c-0.15087,0.36423 0.11547,0.72085 -0.27878,1.11507c-0.19712,0.19712 -0.27876,0.27876 -0.27876,0.55754c0,0.55754 -0.55754,0.55754 -0.55754,0.83631c0,0.27876 0.06405,0.56499 0,0.83631c-0.14323,0.60668 -0.27878,0.83631 -0.27878,1.11507c0,0.55754 0,0.83631 0,1.11507c0,0.27876 -0.27876,0.27876 -0.27876,0.55754c0,0.55754 0,0.83631 0,1.11507c0,0.55754 -0.55754,0.55754 -0.55754,0.83631c0,0.27878 -0.12789,0.47209 -0.27876,0.83631c-0.21335,0.5151 -0.08164,0.63919 -0.27878,0.83631c-0.19712,0.19712 -0.27878,0.27876 -0.27878,0.83631c0,0.27878 -0.22964,0.41433 -0.83631,0.55754c-0.27132,0.06405 -0.27878,0.27876 -0.55754,0.27876c-0.55754,0 -0.55754,0.27878 -0.83631,0.27878c-0.27878,0 -0.16331,0.16331 -0.55754,0.55754c-0.19712,0.19712 -0.83631,0 -1.11507,0c-0.27876,0 -0.83631,0 -1.11507,0c-0.27876,0 -0.55754,0 -0.83631,0c-0.55754,0 -0.75085,-0.1279 -1.11507,-0.27878c-0.5151,-0.21335 -0.63917,-0.08164 -0.83631,-0.27876c-0.39425,-0.39423 -0.27876,-0.55754 -0.27876,-0.83631c0,-0.27878 -0.27878,-0.27878 -0.27878,-0.55754c0,-0.27878 -0.08164,-0.63919 -0.27878,-0.83631c-0.19712,-0.19712 0,-0.55754 0,-1.11507c0,-0.27878 0,-0.55754 0,-0.83631c0,-0.27878 -0.22983,-0.58483 -0.55754,-1.11507c-0.14656,-0.23715 0,-0.83631 0,-1.11507c0,-0.27876 0,-0.55754 0,-0.83631c0,-0.55754 0,-0.83631 0,-1.11507c0,-0.55754 -0.08164,-0.63919 -0.27878,-0.83631c-0.19712,-0.19712 0,-0.55754 0,-0.83631c0,-0.55754 0,-0.83631 0,-1.11507c0,-0.55754 -0.08164,-0.63919 -0.27878,-0.83631c-0.19712,-0.19712 0,-0.55754 0,-0.83631c0,-0.55754 0.10668,-0.85752 0,-1.11507c-0.30173,-0.72846 -0.55754,-0.83631 -0.55754,-1.11507c0,-0.27876 -0.27878,-0.27876 -0.27878,-0.55754c0,-0.55754 -0.27878,-0.83631 -0.27878,-1.11507c0,-0.55754 -0.08164,-0.63919 -0.27876,-0.83631c-0.19712,-0.19712 -0.44207,0.11547 -0.83631,-0.27876c-0.19712,-0.19712 -0.08165,-0.36043 -0.27878,-0.55754c-0.19712,-0.19712 -0.44207,-0.16331 -0.83631,-0.55754c-0.19712,-0.19712 -0.19331,-0.40666 -0.55754,-0.55754c-0.25753,-0.10668 -0.16329,-0.16331 -0.55754,-0.55754c-0.39423,-0.39423 -0.83631,0 -1.11507,0c-0.55754,0 -0.63919,-0.08165 -0.83631,-0.27876c-0.19712,-0.19712 -0.55754,0 -0.83631,0c-0.55754,0 -0.83631,0 -1.11507,0c-0.55754,0 -0.63919,0.08165 -0.83631,0.27876c-0.19712,0.19712 -0.56499,-0.06405 -0.83631,0c-0.60668,0.14321 -0.91795,0.08165 -1.11507,0.27878c-0.19712,0.19712 -0.55754,0.27876 -0.83631,0.27876c-0.27878,0 -0.36041,0.36041 -0.55754,0.55754c-0.19712,0.19712 -0.44207,-0.11547 -0.83631,0.27878c-0.19712,0.19712 0.11547,0.44207 -0.27878,0.83631c-0.19712,0.19712 -0.63919,0.08165 -0.83631,0.27876c-0.19712,0.19712 -0.63917,0.08165 -0.83631,0.27878c-0.19712,0.19712 -0.08165,0.36041 -0.27878,0.55754c-0.39423,0.39423 -0.63917,0.36041 -0.83631,0.55754c-0.19712,0.19712 -0.08164,0.36043 -0.27876,0.55754c-0.39425,0.39423 -0.16331,0.44207 -0.55754,0.83631c-0.19712,0.19712 -0.1279,0.47207 -0.27878,0.83631c-0.21335,0.5151 -0.12789,0.75085 -0.27876,1.11507c-0.21335,0.5151 0.19712,0.91797 0,1.11507c-0.19712,0.19712 -0.27878,0.27878 -0.27878,0.55754c0,0.55754 -0.1279,0.75085 -0.27878,1.11507c-0.21335,0.51508 0,0.83631 0,1.11507c0,0.27878 -0.55754,0.27878 -0.55754,0.55754c0,0.55754 0,0.83631 0,1.11507c0,0.55754 -0.27878,0.55754 -0.27878,0.83631c0,0.27878 0,0.55754 0,0.83631c0,0.55754 0,0.83631 0,1.11507c0,0.55754 0,0.83631 0,1.11507c0,0.27876 0,0.55754 0,1.11507c0,0.27878 0,0.55754 0,1.11507c0,0.27878 0.08164,0.36041 0.27878,0.55754c0.19712,0.19712 0.08164,0.36041 0.27878,0.55754c0.39425,0.39423 0.12789,0.75085 0.27876,1.11507c0.21335,0.5151 0.55754,0.55754 0.55754,0.83631c0,0.27876 0.17208,0.29999 0.27876,0.55754c0.15087,0.36423 0.36041,0.63919 0.55754,0.83631c0.19712,0.19712 0.08164,0.36041 0.27878,0.55754c0.39425,0.39423 0.36041,0.91795 0.55754,1.11507c0.19712,0.19712 0.36041,0.08165 0.55754,0.27878c0.19712,0.19712 0.16331,0.44207 0.55754,0.83631c0.19712,0.19712 0.41433,0.50841 0.55754,1.11507c0.06404,0.2713 0.08164,0.36041 0.27878,0.55754c0.19712,0.19712 0.44207,-0.11547 0.83631,0.27876c0.19712,0.19712 -0.11545,0.44207 0.27878,0.83631c0.19712,0.19712 0.39555,0.11677 0.83631,0.55754c0.44077,0.44077 0.68544,0.75085 0.83631,1.11507c0.10668,0.25755 0.08164,0.36041 0.27878,0.55754c0.39423,0.39423 0.63917,0.36041 0.83631,0.55754c0.19712,0.19712 0.50859,0.02728 0.83631,0.55754c0.29311,0.47427 0.19331,0.68544 0.55754,0.83631c0.25753,0.10668 0.28622,0.21472 0.55754,0.27876c0.60666,0.14321 0.96422,0.19331 1.11507,0.55754c0.21335,0.5151 0.63917,0.36041 0.83631,0.55754c0.19712,0.19712 0.36041,0.08165 0.55754,0.27876c0.19712,0.19712 0.44207,0.44207 0.83631,0.83631c0.19712,0.19712 0.5084,0.13555 1.11507,0.27876c0.27132,0.06405 0.63919,-0.19712 0.83631,0c0.19712,0.19712 0.27878,0.27876 0.83631,0.27876c0.27876,0 0.5084,0.13555 1.11507,0.27878c0.27132,0.06405 0.55754,0 0.83631,0c0.27876,0 0.83631,0 1.11507,0c0.27878,0 0.27878,0.27876 0.83631,0.27876c0.27876,0 0.55754,0 0.83631,0c0.27876,0 0.83631,0 1.11507,0c0.27876,0 0.83631,0 1.11507,0c0.27878,0 0.55754,0 0.83631,0c0.55754,0 0.83631,0 1.11507,0c0.55754,0 0.83631,0 1.11507,0c0.27878,0 0.55754,0 1.11507,0c0.27878,0 0.16331,-0.16331 0.55754,-0.55754c0.39423,-0.39423 0.83631,0 1.11507,0c0.27878,0 0.36043,-0.08165 0.55754,-0.27876c0.39423,-0.39423 0.63919,0.08165 0.83631,0.27876c0.19712,0.19712 0.44207,-0.11547 0.83631,0.27878c0.19712,0.19712 0.27878,0.27876 0.27878,0.83631c0,0.27878 0.08164,0.36043 0.27876,0.55754c0.39423,0.39423 0,0.83631 0,1.11507c0,0.27878 0,0.55754 0,1.11507c0,0.27876 0,0.55754 0,1.11507c0,0.27876 0,0.55754 0,0.83631c0,0.27876 -0.08164,0.63919 -0.27876,0.83631c-0.19712,0.19712 -0.27878,0.27876 -0.27878,0.55754c0,0.55754 -0.08165,0.63919 -0.27878,0.83631c-0.19712,0.19712 -0.22964,0.41433 -0.83631,0.55754c-0.27132,0.06405 -0.36041,0.08164 -0.55754,0.27876c-0.39425,0.39425 -0.36041,0.63919 -0.55754,0.83631c-0.19712,0.19712 -0.27876,0.27876 -0.55754,0.27876c-0.27878,0 -0.27878,0.55754 -0.55754,0.55754c-0.55754,0 -0.55754,0.27876 -0.83631,0.27876c-0.27876,0 -0.75085,0.1279 -1.11507,0.27878c-0.25755,0.10668 -0.55754,0 -0.83631,0c-0.55754,0 -0.83631,0 -1.11507,0c-0.55754,0 -0.83631,0.27878 -1.11507,0.27878c-0.27878,0 -0.55754,0 -1.11507,0c-0.27878,0 -0.55754,0 -1.11507,0c-0.27878,0 -0.57876,0.10668 -0.83631,0c-0.36423,-0.15087 -0.91795,-0.08164 -1.11507,-0.27878c-0.19712,-0.19712 -0.44207,0.11545 -0.83631,-0.27878c-0.19712,-0.19712 -0.08164,-0.36041 -0.27878,-0.55754c-0.19712,-0.19712 -0.32039,-0.13221 -0.55754,-0.27878c-0.53024,-0.32771 -0.44207,-0.44207 -0.83631,-0.83631c-0.19712,-0.19712 -0.06541,-0.32121 -0.27878,-0.83631c-0.15087,-0.36423 -0.44207,-0.16331 -0.83631,-0.55754c-0.19712,-0.19712 -0.08164,-0.36041 -0.27878,-0.55754c-0.39423,-0.39423 -0.27878,-0.55754 -0.27878,-0.83631c0,-0.27878 -0.06541,-0.32121 -0.27876,-0.83631c-0.15087,-0.36423 -0.44207,-0.16331 -0.83631,-0.55754c-0.19712,-0.19712 0,-0.55754 -0.27878,-0.55754l0,-0.55754l0,-0.27878" stroke-width="3"/>
  <path stroke="#000" fill="none" id="svg_16" d="m138.85237,72.43134c0,0 -0.39681,-0.16437 0,-0.56118c0.39681,-0.39681 0.4538,-0.30195 0.56118,-0.56118c0.15185,-0.36661 0.28059,-0.56118 0.28059,-1.12236c0,-0.28059 0.28059,-0.56118 0.28059,-1.12236c0,-0.28059 0.12872,-0.47518 0.28059,-0.84177c0.10738,-0.25924 0.12874,-0.75575 0.28059,-1.12236c0.32214,-0.7777 0.56118,-1.12236 0.56118,-1.40295c0,-0.56118 0.08218,-0.92395 0.28059,-1.12236c0.19842,-0.19841 0.13644,-0.51173 0.28059,-1.12236c0.06446,-0.27308 0.23133,-0.30806 0.56118,-0.84177c0.14752,-0.23869 0.12874,-0.75575 0.28059,-1.12236c0.10738,-0.25923 0,-0.84177 0,-1.12236c0,-0.28059 0.28059,-0.28059 0.28059,-0.56118c0,-0.84177 -0.06446,-1.12987 0,-1.40295c0.14415,-0.61063 0.28059,-0.84177 0.28059,-1.12236c0,-0.28059 -0.21476,-0.60391 0,-1.12236c0.15185,-0.36661 0.28059,-0.56118 0.28059,-1.12236c0,-0.28059 -0.14752,-0.60308 0,-0.84177c0.32985,-0.53371 0.56118,-0.84177 0.56118,-1.12236c0,-0.28059 0.12874,-0.75575 0.28059,-1.12236c0.10738,-0.25924 -0.19841,-0.64336 0,-0.84177c0.19842,-0.19841 0.28059,-0.56118 0.28059,-0.84177c0,-0.28059 0.56118,-0.28059 0.56118,-0.84177c0,-0.28059 0.12874,-0.47516 0.28059,-0.84177c0.10738,-0.25924 -0.10738,-0.86313 0,-1.12236c0.15185,-0.36661 0.28059,-0.84177 0.28059,-1.12236c0,-0.28059 0.28059,-0.56118 0.28059,-1.40295c0,-0.28059 0.28059,-0.56118 0.28059,-1.12236c0,-0.28059 0,-0.56118 0,-0.84177c0,-0.28059 0.56118,-0.28059 0.56118,-0.84177c0,-0.28059 -0.39681,-0.72555 0,-1.12236c0.19841,-0.19841 0.28059,-0.28059 0.28059,-0.56118c0,-0.28059 -0.39681,-0.72555 0,-1.12236c0.19842,-0.19841 0.28059,-0.28059 0.28059,-0.56118c0,-0.56118 0,-0.84177 0,-1.12236c0,-0.28059 0,-0.56118 0,-1.12236c0,-0.28059 0.16437,-0.16437 0.56118,-0.56118c0.39681,-0.39681 0,-0.84177 0,-1.40295c0,-0.28059 0,-0.84177 0,-1.12236c0,-0.28059 0,-0.84177 0,-1.12236c0,-0.28059 -0.08217,-0.36277 -0.28059,-0.56118c-0.19842,-0.19841 -0.44496,0.11622 -0.84177,-0.28059c-0.39681,-0.39681 -0.36277,-0.64336 -0.56118,-0.84177c-0.19842,-0.19841 -0.56118,-0.28059 -0.84177,-0.28059c-0.28059,0 -0.16435,-0.16437 -0.56118,-0.56118c-0.19842,-0.19841 -0.84179,0 -1.12236,0c-0.28059,0 -0.28059,-0.28059 -0.84177,-0.28059c-0.28059,0 -0.36279,-0.08218 -0.56118,-0.28059c-0.19842,-0.19841 -0.56118,0 -1.12236,0c-0.28059,0 -0.56118,0 -1.12236,0c-0.28059,0 -0.58254,-0.10738 -0.84179,0c-0.36659,0.15185 -0.92395,0.08218 -1.12236,0.28059c-0.19841,0.19841 -0.28059,0.28059 -0.84179,0.28059c-0.28059,0 -0.58254,0.17321 -0.84177,0.28059c-0.36659,0.15185 -0.92395,0.08218 -1.12236,0.28059c-0.39681,0.39681 -0.44496,0.44496 -0.84177,0.84177c-0.19841,0.19841 -0.28059,0.28059 -0.28059,0.84177c0,0.28059 -0.08218,0.36277 -0.28059,0.56118c-0.19842,0.19841 -0.08218,0.36277 -0.28059,0.56118c-0.19842,0.19841 -0.51192,0.30806 -0.84177,0.84177c-0.14752,0.23869 0.19841,0.92395 0,1.12236c-0.19842,0.19841 -0.28059,0.28059 -0.28059,0.56118c0,0.28059 -0.28059,0.28059 -0.28059,0.84177c0,0.28059 0.39681,0.72555 0,1.12236c-0.39681,0.39681 -0.56118,0.28059 -0.56118,0.56118c0,0.28059 -0.13644,0.51173 -0.28059,1.12236c-0.06446,0.27308 0,0.56118 0,1.12236c0,0.28059 0.10738,0.58254 0,0.84177c-0.15185,0.36661 -0.28059,0.84177 -0.28059,1.12236c0,0.28059 -0.08218,0.64336 -0.28059,0.84177c-0.19841,0.19841 0.10738,0.58254 0,0.84177c-0.15185,0.36661 -0.28059,0.84177 -0.28059,1.12236c0,0.28059 0,0.84177 0,1.12236c0,0.28059 0,0.56118 0,0.84177c0,0.56118 0.10738,0.86313 0,1.12236c-0.30371,0.73321 -0.56118,0.84177 -0.56118,1.12236c0,0.28059 0,0.56118 0,1.12236c0,0.28059 0.39681,0.72555 0,1.12236c-0.19842,0.19841 -0.28059,0.28059 -0.28059,0.56118c0,0.28059 0,0.56118 0,1.12236c0,0.28059 -0.08218,0.36277 -0.28059,0.56118c-0.39681,0.39681 0,0.84177 0,1.12236c0,0.28059 0.39681,0.72555 0,1.12236c-0.39681,0.39681 -0.56118,0.28059 -0.56118,0.56118c0,0.56118 -0.08218,0.64336 -0.28059,0.84177c-0.19842,0.19841 0.19842,0.64336 0,0.84177c-0.19841,0.19841 -0.28059,0.56118 -0.28059,0.84177c0,0.28059 -0.28059,0.84177 -0.28059,1.12236c0,0.28059 -0.28059,0.28059 -0.28059,0.56118c0,0.28059 0.19841,0.92395 0,1.12236c-0.39681,0.39681 -0.56118,0.28059 -0.56118,0.84177c0,0.28059 -0.28059,0.56118 -0.28059,0.84177c0,0.28059 -0.12874,0.75575 -0.28059,1.12236c-0.10738,0.25924 0,0.84177 0,1.12236c0,0.28059 -0.56118,0.28059 -0.56118,0.56118c0,0.28059 0.10738,0.86313 0,1.12236c-0.15185,0.36661 -0.28059,0.84177 -0.28059,1.12236c0,0.28059 -0.12872,0.47518 -0.28059,0.84177c-0.21476,0.51847 0,0.84177 0,1.12236c0,0.56118 0.19842,0.92395 0,1.12236c-0.19842,0.19842 -0.28059,0.28059 -0.28059,0.56118c0,0.56118 0,0.84177 0,1.12236c0,0.56118 -0.12874,0.75575 -0.28059,1.12236c-0.10738,0.25923 0,0.56118 0,1.12236c0,0.28059 0,0.56118 0,1.12236c0,0.28059 -0.16437,0.16437 -0.56118,0.56118c-0.19842,0.19842 0,0.56118 0,1.12236c0,0.28059 0.39681,0.72555 0,1.12236c-0.19842,0.19842 -0.28059,0.28059 -0.28059,0.56118c0,0.28059 0,0.56118 0,1.12236c0,0.28059 -0.28059,0.56118 -0.28059,1.12236c0,0.28059 0,0.56118 0,0.56118c0,0.28059 0.16437,0.16437 0.56118,0.56118c0.39681,0.39681 0.28059,0.56118 0.28059,0.84177c0,0.28059 -0.11622,0.44496 0.28059,0.84177c0.39681,0.39681 0.92395,0.08218 1.12236,0.28059c0.19842,0.19842 0.40931,0.47516 0.56118,0.84177c0.21474,0.51845 0.36277,0.64335 0.56118,0.84177c0.19841,0.19841 0.72555,-0.11622 1.12236,0.28059c0.39681,0.39681 0.30195,0.4538 0.56118,0.56118c0.36661,0.15185 0.72555,-0.11622 1.12236,0.28059c0.19842,0.19842 0.28059,0.28059 0.56118,0.28059c0.56118,0 0.86313,-0.10738 1.12236,0c0.36661,0.15185 0.56118,0.28059 1.12236,0.28059c0.28059,0 0.56118,0 1.12236,0c0.28059,0 0.56118,0 0.84177,0c0.28059,0 0.84177,0 1.12236,0c0.28059,0 0.84177,0 1.12236,0c0.28059,0 0.36277,-0.08218 0.56118,-0.28059c0.19842,-0.19842 0.92395,0.19842 1.12236,0c0.19842,-0.19842 0.28059,-0.28059 1.12236,-0.28059c0.28059,0 0.56118,0 0.84177,0c0.56118,0 0.84177,0 1.12236,0c0.56118,0 0.84177,0 1.12236,0c0.28059,0 0.56118,0 1.12236,0c0.28059,0 0.56118,0 1.12236,0c0.28059,0 0.56118,0 0.84177,0c0.28059,0 0.84179,0 1.12236,0c0.28059,0 0.75575,-0.12874 1.12236,-0.28059c0.25923,-0.10738 0.64336,0.19841 0.84177,0c0.19842,-0.19842 0.56118,-0.28059 0.84177,-0.28059c0.28059,0 0.28059,-0.28059 0.84179,-0.28059c0.28059,0 0.56118,0 0.84177,0c0.28059,0 0.84177,-0.56118 1.12236,-0.56118c0.28059,0 0.84177,0 1.12236,0c0.28059,0 0.56118,0 0.84179,0c0.56118,0 0.84177,-0.28059 1.12236,-0.28059c0.56118,0 0.84177,0 1.12236,0c0.28059,0 0.56118,0 1.12236,0c0.28059,0 0.56118,0 1.12236,0c0.28059,0 0.36276,-0.08218 0.56118,-0.28059c0.19842,-0.19842 0.56118,0 1.12236,0c0.28059,0 0.56118,0 1.12236,0c0.28059,0 0.30806,-0.23133 0.84177,-0.56118c0.23869,-0.14752 0.84177,0 1.12236,0c0.28059,0 0.75575,-0.12874 1.12236,-0.28059c0.25923,-0.10738 0.56118,0 0.84175,0c0.56118,0 0.84179,-0.28059 1.12238,-0.28059c0.56118,0 0.84175,0 1.12236,0c0.28059,0 0.56118,0 1.12238,0c0.28059,0 0.56116,-0.28059 1.12236,-0.28059c0.28059,0 0.56118,0 0.84179,0c0.28059,0 0.75575,-0.12872 1.12236,-0.28059c0.25923,-0.10738 0.84179,0 1.12238,0c0.28057,0 0.58253,0.10738 0.84175,0c0.73321,-0.30371 0.84179,-0.56118 1.12238,-0.56118c0.56116,0 0.56116,-0.28059 0.84175,-0.28059c0.28059,0 0.28059,-0.28059 0.56118,-0.28059c0.28059,0 0.92395,-0.36277 1.12236,-0.56118c0.19841,-0.19841 0.23113,-0.41701 0.84179,-0.56118c0.27308,-0.06446 0.28059,-0.28059 0.56118,-0.28059c0.28057,0 0.36276,-0.08217 0.56116,-0.28059c0.39683,-0.39681 0.36279,-0.64336 0.56118,-0.84179c0.19841,-0.19842 0.36279,-0.08217 0.56118,-0.28059c0.39683,-0.39681 0.36276,-0.64336 0.56116,-0.84177c0.19841,-0.19842 0.08218,-0.36277 0.28059,-0.56118c0.19841,-0.19842 0.06583,-0.32332 0.28059,-0.84177c0.15187,-0.36661 0.28059,-0.56118 0.28059,-1.12236c0,-0.28059 0,-0.56118 0,-0.84177c0,-0.28059 0,-0.84177 0,-1.12236c0,-0.28059 0.11622,-0.44496 -0.28059,-0.84177c-0.19841,-0.19842 -0.36279,-0.08218 -0.56118,-0.28059c-0.19841,-0.19841 -0.08217,-0.36276 -0.28057,-0.56118c-0.19841,-0.19842 -0.44496,0.11622 -0.84179,-0.28059c-0.39681,-0.39681 -0.08218,-0.64335 -0.28059,-0.84177c-0.19841,-0.19842 -0.28059,-0.28059 -0.84175,-0.28059c-0.28059,0 -0.28059,-0.56118 -0.56118,-0.56118c-0.28059,0 -0.28059,-0.28059 -0.56118,-0.28059c-0.56118,0 -0.84175,-0.28059 -1.12236,-0.28059c-0.56118,0 -0.56118,-0.28059 -0.84179,-0.28059c-0.28059,0 -0.36279,-0.08218 -0.56118,-0.28059c-0.19841,-0.19839 -0.92395,0.19842 -1.12236,0c-0.39681,-0.39681 -0.28059,-0.56118 -0.84179,-0.56118c-0.28057,0 -0.64335,0.19842 -0.84175,0c-0.19841,-0.19842 -0.28059,-0.28059 -0.84179,-0.28059c-0.28059,0 -0.56116,0 -1.12236,0c-0.28059,0 -0.56118,0 -0.84179,0c-0.28059,0 -0.84175,0 -1.12236,0c-0.28059,0 -0.64338,-0.08218 -0.84179,-0.28059c-0.19841,-0.19842 -0.56116,0 -0.84175,0c-0.28059,0 -0.84179,0 -1.12238,0c-0.28059,0 -0.84175,0 -1.12236,0c-0.28059,0 -0.56118,0 -0.84177,0c-0.56118,0 -0.84177,0 -1.12236,0c-0.56118,0 -0.84177,0 -1.12236,0c-0.28059,0 -0.56118,0 -1.12236,0c-0.28059,0 -0.56118,0 -1.12236,0c-0.28059,0 -0.56118,0 -0.84177,0c-0.28059,0 -0.28059,0 -0.84177,0c-0.28059,0 -0.56118,0 -1.12236,0c-0.28059,0 -0.56118,0 -0.84177,0c-0.28059,0 -0.84177,0 -1.12236,0c-0.28059,0 -0.92395,-0.19842 -1.12236,0c-0.39681,0.39681 -0.28059,0.56118 -0.56118,0.56118c-0.28059,0 -0.86313,-0.10738 -1.12236,0c-0.36661,0.15185 -0.84177,0.28059 -1.12236,0.28059c-0.28059,0 -0.56118,0 -0.84177,0c-0.56118,0 -0.84177,0 -1.12236,0c-0.56118,0 -0.56118,0.28059 -0.84177,0.28059c-0.28059,0 -0.56118,0 -0.84177,0c-0.56118,0 -0.92395,-0.19842 -1.12236,0c-0.39681,0.39681 -0.56118,0.56118 -0.84177,0.56118c-0.28059,0 -0.56118,0 -0.84177,0c-0.56118,0 -0.56118,0.28059 -0.84177,0.28059c-0.28059,0 -0.84177,0 -1.12236,0c-0.28059,0 -0.56118,0 -0.84177,0c-0.56118,0 -0.64335,0.08218 -0.84177,0.28059c-0.19842,0.19842 -0.84177,0 -1.12236,0c-0.28059,0 -0.56118,0 -0.84177,0l0,0.28059l-0.56118,0l-0.28059,0" stroke-width="3"/>
  <path transform="rotate(0.414997 213.09 60.5265)" stroke="#000" d="m206.24769,40.44944c-0.23195,0.22472 -0.36782,0.35635 -0.69582,0.67416c-0.16401,0.1589 -0.57029,0.15583 -0.69581,0.44944c-0.08876,0.20761 -0.28636,0.25893 -0.46389,0.67416c-0.12552,0.29361 -0.33835,0.38055 -0.46387,0.67416c-0.17752,0.41523 -0.06793,0.51526 -0.23194,0.67416c-0.16401,0.1589 -0.13587,0.13163 -0.46389,0.44944c-0.32801,0.3178 -0.10642,0.60527 -0.23194,0.89888c-0.08876,0.20761 -0.06793,0.51526 -0.23194,0.67416c-0.16401,0.1589 -0.06793,0.29054 -0.23194,0.44944c-0.16401,0.1589 -0.19122,0.47143 -0.46389,0.89888c-0.12194,0.19116 -0.05441,0.48365 -0.23194,0.89888c-0.12552,0.29361 -0.33835,0.38055 -0.46387,0.67416c-0.17752,0.41523 -0.37513,0.69126 -0.46389,0.89888c-0.12552,0.29361 -0.33835,0.60527 -0.46387,0.89888c-0.08876,0.20761 -0.11278,0.40983 -0.23194,0.89888c-0.05329,0.21871 -0.46389,0.22472 -0.46389,0.44944c0,0.22472 -0.23194,0.22472 -0.23194,0.67416c0,0.22472 -0.23194,0.22472 -0.23194,0.44944c0,0.22472 -0.23194,0.67416 -0.23194,0.89888c0,0.22472 -0.46389,0.22472 -0.46389,0.44944c0,0.44944 -0.23194,0.44944 -0.23194,0.67416c0,0.22472 -0.06793,0.29053 -0.23194,0.44944c-0.16401,0.1589 -0.23194,0.44944 -0.23194,0.67416c0,0.22472 -0.41059,0.23073 -0.46389,0.44944c-0.11916,0.48904 -0.33835,0.60527 -0.46387,0.89888c-0.08876,0.20761 0.13388,0.32541 -0.23194,0.89888c-0.27266,0.42745 -0.57667,0.40983 -0.69582,0.89888c-0.05329,0.21871 -0.23194,0.22472 -0.23194,0.44944c0,0.22472 -0.10999,0.70772 -0.23194,0.89888c-0.27266,0.42744 -0.53181,0.29054 -0.69582,0.44944c-0.32801,0.3178 -0.06793,0.51526 -0.23194,0.67416c-0.16401,0.1589 -0.11278,0.40984 -0.23194,0.89888c-0.05329,0.2187 -0.37511,0.24182 -0.46387,0.44944c-0.12554,0.29362 -0.14319,0.69126 -0.23195,0.89888c-0.12552,0.29361 -0.29986,0.29054 -0.46387,0.44944c-0.32801,0.3178 -0.13587,0.35636 -0.46387,0.67416c-0.16401,0.1589 -0.23195,0.22472 -0.23195,0.44944c0,0.44944 -0.23194,0.44944 -0.23194,0.67416c0,0.22472 -0.14317,0.24182 -0.23194,0.44944c-0.25104,0.58721 -0.53181,0.51524 -0.69582,0.67416c-0.16401,0.1589 -0.06793,0.29054 -0.23194,0.44944c-0.32801,0.31779 -0.06793,0.73997 -0.23194,0.89887c-0.32801,0.31779 -0.57667,0.1851 -0.69582,0.67416c-0.05329,0.21871 -0.06793,0.51526 -0.23194,0.67416c-0.16401,0.1589 -0.42314,0.24673 -0.69581,0.67416c-0.12193,0.19115 -0.23194,0.44943 -0.23194,0.89887c0,0.22472 -0.14319,0.24182 -0.23195,0.44944c-0.12552,0.29361 -0.42314,0.47144 -0.69581,0.89887c-0.12194,0.19116 0.20924,0.6347 -0.23194,0.89888c-0.1973,0.11815 -0.14319,0.24182 -0.23195,0.44944c-0.12552,0.29361 -0.11001,0.70772 -0.23194,0.89887c-0.27266,0.42744 -0.13587,0.58108 -0.46387,0.89888c-0.16401,0.1589 -0.23194,0.22472 -0.23194,0.44943c0,0.22472 -0.23195,0.22472 -0.23195,0.67416c0,0.22472 -0.23194,0.22472 -0.23194,0.44943c0,0.22472 -0.46387,0.67416 -0.46387,0.89888c0,0.22472 -0.23194,0.44944 -0.23194,0.89887c0,0.22472 -0.17866,0.45545 -0.23195,0.67416c-0.11916,0.48904 -0.23194,0.67416 -0.23194,0.89887c0,0.22472 -0.46387,0.22472 -0.46387,0.67416c0,0.22472 -0.10642,0.38055 -0.23194,0.67416c-0.17752,0.41523 0.16401,0.73998 0,0.89888c-0.16401,0.1589 -0.23194,0.22472 -0.23194,0.67416c0,0.22472 0,0.44944 0,0.67416c0,0.44944 0,0.67416 0,0.89888c0,0.22472 0,0.67416 0,0.89887c0,0.22472 0,0.44944 0,0.89888c0,0.22472 0,0.44944 0,0.67416c0,0.44944 0.37511,0.46655 0.46387,0.67416c0.12552,0.29361 0.13587,0.58108 0.46387,0.89888c0.16401,0.1589 0.53181,0.06582 0.69582,0.22472c0.16401,0.1589 0.39277,0.1031 0.69581,0.22472c0.42858,0.172 0.62472,0.1031 0.92776,0.22472c0.21428,0.086 0.36782,0.13164 0.69582,0.44944c0.16401,0.1589 0.47008,-0.05163 0.69581,0c0.50477,0.11545 0.69582,0.22472 0.92776,0.22472c0.23194,0 0.69582,0 0.92776,0c0.23194,0 0.46387,0 0.92776,0c0.23194,0 0.46387,0 0.69581,0c0.46389,0 0.36782,-0.13164 0.69582,-0.44944c0.16401,-0.1589 0.42299,-0.10927 0.92776,-0.22472c0.22573,-0.05163 0.39277,-0.32783 0.69581,-0.44944c0.42856,-0.17199 0.57029,-0.38054 0.69582,-0.67416c0.08876,-0.20762 0.06793,-0.29054 0.23194,-0.44944c0.16401,-0.1589 0.3678,-0.13165 0.69581,-0.44944c0.16401,-0.1589 0.29988,-0.29053 0.46389,-0.44943c0.16401,-0.15891 0.06793,-0.51527 0.23194,-0.67416c0.16401,-0.1589 0.57667,-0.1851 0.69582,-0.67416c0.10659,-0.43742 0.23194,-0.44944 0.23194,-0.67416c0,-0.22472 0.23194,-0.22472 0.23194,-0.44944c0,-0.44943 0.46387,-0.44943 0.46387,-0.67416c0,-0.22472 0.23195,-0.44944 0.23195,-0.89887c0,-0.22472 0.23194,-0.22472 0.23194,-0.44944c0,-0.22472 0.23194,-0.22472 0.23194,-0.67416c0,-0.22472 0.37511,-0.24183 0.46387,-0.44944c0.12552,-0.29361 0.33835,-0.60526 0.46389,-0.89888c0.08876,-0.20761 0.23194,-0.22472 0.23194,-0.44943c0,-0.44944 0.46387,-0.44944 0.46387,-0.67416c0,-0.22472 0.05441,-0.48366 0.23194,-0.89888c0.12554,-0.29362 0.29988,-0.29054 0.46389,-0.44944c0.16401,-0.1589 0.19121,-0.47144 0.46387,-0.89887c0.12194,-0.19116 0.06793,-0.29054 0.23194,-0.44944c0.49202,-0.4767 0.23195,-0.89888 0.23195,-1.1236c0,-0.44944 0.11001,-0.70772 0.23194,-0.89887c0.27266,-0.42744 0.37511,-0.69127 0.46387,-0.89888c0.12552,-0.29361 -0.09607,-0.58108 0.23194,-0.89888c0.16401,-0.15891 0.23195,-0.22472 0.23195,-0.44943c0,-0.22472 0.23194,-0.22472 0.23194,-0.67416c0,-0.22472 0.13587,-0.13165 0.46387,-0.44944c0.16401,-0.15891 -0.08876,-0.69126 0,-0.89888c0.12552,-0.29361 0.05441,-0.48364 0.23194,-0.89887c0.12554,-0.29362 0.06794,-0.51526 0.23195,-0.67416c0.16401,-0.1589 0.23194,-0.44944 0.23194,-0.67416c0,-0.22472 0.46387,-0.22472 0.46387,-0.44943c0,-0.44944 0.10642,-0.60527 0.23194,-0.89888c0.08876,-0.20761 0.23194,-0.67416 0.23194,-0.89887c0,-0.22472 0.23195,-0.22472 0.23195,-0.44944c0,-0.44944 0.19121,-0.47144 0.46387,-0.89888c0.12194,-0.19116 -0.16401,-0.73998 0,-0.89888c0.16401,-0.1589 0.17864,-0.23073 0.23194,-0.44944c0.11916,-0.48904 0.06793,-0.73997 0.23194,-0.89888c0.16401,-0.15891 0.23195,-0.22472 0.23195,-0.67416c0,-0.22472 0.46387,-0.22472 0.46387,-0.44944c0,-0.22472 0.23194,-0.22472 0.23194,-0.67416c0,-0.22472 0.23194,-0.44944 0.23194,-0.67416c0,-0.44944 0.23195,-0.44944 0.23195,-0.67416c0,-0.22472 0.46387,-0.22472 0.46387,-0.44944c0,-0.44944 0.06793,-0.51526 0.23194,-0.67416c0.16401,-0.1589 0.06793,-0.29054 0.23194,-0.44944c0.32801,-0.3178 0.23195,-0.44944 0.23195,-0.67416c0,-0.22472 0.46387,-0.22472 0.46387,-0.44944c0,-0.44944 0.23194,-0.44944 0.23194,-0.67416c0,-0.22472 0.06793,-0.29054 0.23194,-0.44944c0.16401,-0.1589 0.06793,-0.51525 0.23194,-0.67416c0.32802,-0.31781 0.53181,-0.06582 0.69582,-0.22472c0.16401,-0.1589 -0.09607,-0.35635 0.23194,-0.67416c0.16401,-0.1589 0.3678,0.09309 0.69582,-0.22472c0.16401,-0.1589 0.23194,-0.22472 0.46387,-0.22472c0.23194,0 0.69582,-0.22472 0.92776,-0.22472c0.23194,0 0.46387,0 0.92776,0c0.23194,0 0.46387,0 0.69581,0c0.46389,0 0.53181,0.06582 0.69582,0.22472c0.16401,0.1589 0.23194,0.22472 0.23194,0.67416c0,0.22472 0.23194,0.44944 0.23194,0.67416c0,0.44944 0.13587,0.35635 0.46389,0.67416c0.16401,0.1589 0,0.44944 0,0.89888c0,0.22472 0.23194,0.22472 0.23194,0.44944c0,0.22472 0,0.67416 0,0.89888c0,0.22472 0.23194,0.22472 0.23194,0.44944c0,0.44944 -0.08876,0.69126 0,0.89888c0.12552,0.29361 0.23194,0.67416 0.23194,0.89888c0,0.22472 0,0.44944 0,0.89888c0,0.22472 0.13587,0.13163 0.46389,0.44944c0.16401,0.1589 0,0.67416 0,0.89888c0,0.22472 0,0.44944 0,0.89888c0,0.22472 0,0.44944 0,0.67416c0,0.44944 0,0.67416 0,0.89888c0,0.22472 0,0.67416 0,0.89888c0,0.22472 0.06793,0.29054 0.23194,0.44944c0.32801,0.31779 0.06793,0.51526 0.23194,0.67416c0.16401,0.1589 -0.32801,0.58108 0,0.89887c0.16401,0.1589 0.23194,0.22472 0.23194,0.44944c0,0.22472 0.13587,0.35635 0.46389,0.67416c0.16401,0.15891 0,0.44944 0,0.67416c0,0.44944 0.06793,0.51527 0.23194,0.67416c0.16401,0.1589 0,0.44943 0,0.89887c0,0.22472 0.06793,0.29054 0.23194,0.44944c0.16401,0.1589 0,0.67416 0,0.89887c0,0.22472 0.23194,0.22472 0.23194,0.44944c0,0.44944 0.46387,0.44944 0.46387,0.67416c0,0.22472 0.11279,0.40983 0.23195,0.89888c0.05329,0.2187 0.06793,0.29054 0.23194,0.44944c0.16401,0.1589 0.06793,0.51526 0.23194,0.67416c0.16401,0.1589 -0.16401,0.51525 0,0.67416c0.32801,0.31779 0.46387,0.44944 0.46387,0.67416c0,0.22472 0.23195,0.22472 0.23195,0.44944c0,0.44944 0.23194,0.67416 0.23194,0.89887c0,0.22472 0.06793,0.51526 0.23194,0.67416c0.16401,0.15891 0.13587,0.13165 0.46387,0.44944c0.16401,0.15891 0.23195,0.67416 0.23195,0.89888c0,0.22472 0.06793,0.29053 0.23194,0.44943c0.16401,0.1589 0.06793,0.51526 0.23194,0.67416c0.32801,0.31779 0.57029,0.15582 0.69582,0.44943c0.17752,0.41522 0.06793,0.51526 0.23194,0.67416c0.16401,0.1589 0.42314,0.022 0.69581,0.44943c0.24387,0.38232 0.06794,0.51526 0.23195,0.67416c0.16401,0.1589 0.23194,0.22472 0.46387,0.44944c0.46387,0.44944 0.6247,0.77726 0.92776,0.89888c0.21428,0.08599 0.30122,-0.01157 0.69581,0.22472c0.44118,0.26418 0.47009,0.62253 0.69582,0.67416c0.50476,0.11545 0.5318,0.29054 0.69581,0.44944c0.16401,0.15891 0.29988,0.29054 0.46389,0.44944c0.16401,0.1589 0.5318,0.06582 0.69581,0.22472c0.16401,0.15891 0.29988,0.06583 0.46389,0.22472c0.16401,0.1589 0.5318,0.06582 0.69581,0.22472c0.32801,0.3178 0.23194,0.44944 0.46389,0.44944c0.46387,0 0.5318,0.06582 0.69581,0.22472c0.16401,0.1589 0.46389,0 0.92776,0c0.23194,0 0.46387,0 0.69582,0c0.46387,0 0.69581,0 0.92774,0c0.23195,0 0.69582,0 0.92776,0c0.23194,0 0.46387,0 0.92776,0c0.23194,0 0.23194,-0.44944 0.46387,-0.44944c0.23194,0 0.3678,0.09309 0.69582,-0.22472c0.16401,-0.1589 0.29986,-0.06582 0.46387,-0.22472c0.16401,-0.15891 0.44477,-0.08694 0.69582,-0.67416c0.08876,-0.20761 0.06793,-0.29053 0.23194,-0.44943c0.16401,-0.1589 0.29986,-0.06583 0.46387,-0.22472c0.32801,-0.3178 0.29988,-0.51526 0.46389,-0.67416c0.16401,-0.1589 0.29986,-0.06582 0.46387,-0.22472c0.16401,-0.15891 0.23194,-0.22472 0.23194,-0.67416c0,-0.22472 0.46389,-0.44944 0.46389,-0.67416c0,-0.44943 0.23194,-0.67416 0.23194,-0.89887c0,-0.22472 -0.16401,-0.73997 0,-0.89888c0.16401,-0.1589 0.23194,-0.22472 0.23194,-0.44943c0,-0.44944 0,-0.67416 0,-0.89888c0,-0.22472 0,-0.67416 0,-0.89887c0,-0.22472 0,-0.44944 0,-0.89888c0,-0.22472 0,-0.44944 0,-0.67416c0,-0.44944 0,-0.67416 0,-0.89888c0,-0.22472 -0.46387,-0.22472 -0.46387,-0.67416c0,-0.22472 -0.06794,-0.29053 -0.23195,-0.44944c-0.16401,-0.1589 -0.06793,-0.51526 -0.23194,-0.67416c-0.16401,-0.1589 0.16401,-0.51525 0,-0.67416c-0.16401,-0.1589 -0.23194,-0.44944 -0.23194,-0.67416c0,-0.22472 -0.46387,-0.22472 -0.46387,-0.44944c0,-0.44944 -0.10642,-0.60526 -0.23194,-0.89887c-0.08876,-0.20762 -0.10642,-0.60526 -0.23195,-0.89888c-0.08876,-0.20761 0.32801,-0.58108 0,-0.89887c-0.16401,-0.1589 -0.23194,-0.22472 -0.23194,-0.44944c0,-0.22472 -0.46387,-0.22472 -0.46387,-0.67416c0,-0.22472 -0.06793,-0.29054 -0.23194,-0.44944c-0.16401,-0.1589 0.08876,-0.69126 0,-0.89888c-0.12554,-0.29362 -0.23195,-0.44943 -0.23195,-0.89887c0,-0.22472 -0.23194,-0.22472 -0.23194,-0.44944c0,-0.22472 -0.19121,-0.47144 -0.46387,-0.89887c-0.12194,-0.19116 -0.11445,-0.42215 -0.23194,-1.1236c-0.03715,-0.22181 -0.06794,-0.29053 -0.23195,-0.44944c-0.32801,-0.3178 0,-0.67416 0,-0.89888c0,-0.22472 -0.23194,-0.67416 -0.23194,-0.89888c0,-0.22472 -0.21283,-0.31166 -0.46387,-0.89888c-0.08876,-0.20761 0.16401,-0.51526 0,-0.67416c-0.16401,-0.1589 0.09607,-0.58107 -0.23194,-0.89888c-0.16401,-0.15891 -0.12538,-0.23674 -0.23195,-0.67416c-0.11916,-0.48904 -0.05441,-0.70837 -0.23194,-1.1236c-0.25104,-0.58722 -0.1976,-0.72547 -0.46387,-1.34831c-0.12552,-0.29361 0.03433,-0.50076 -0.23194,-1.1236c-0.12552,-0.29361 -0.23194,-0.44944 -0.23194,-1.1236c0,-0.22472 -0.23195,-0.44944 -0.23195,-0.89888c0,-0.22472 -0.13587,-0.13164 -0.46387,-0.44944c-0.16401,-0.1589 0,-0.67416 0,-0.89888c0,-0.22472 -0.06793,-0.29054 -0.23194,-0.44944c-0.32801,-0.3178 0.08876,-0.69126 0,-0.89888c-0.12552,-0.29361 -0.14317,-0.69126 -0.23194,-0.89888c-0.12554,-0.29362 0.09605,-0.58108 -0.23195,-0.89888c-0.32801,-0.31779 -0.37511,-0.24183 -0.46387,-0.44944c-0.12552,-0.29361 -0.23194,-0.67416 -0.23194,-0.89888c0,-0.22472 -0.23194,-0.44944 -0.23194,-0.89888c0,-0.22472 -0.14319,-0.46654 -0.23195,-0.67416c-0.25104,-0.58722 -0.46387,-0.67416 -0.46387,-0.89888c0,-0.22472 -0.23194,-0.67416 -0.23194,-0.89888c0,-0.22472 -0.23194,-0.22472 -0.23194,-0.44944c0,-0.44944 -0.23195,-0.44944 -0.23195,-0.67416c0,-0.22472 -0.46387,-0.22472 -0.46387,-0.44944c0,-0.44944 -0.14317,-0.69126 -0.23194,-0.89888c-0.12552,-0.29361 -0.23194,-0.67416 -0.23194,-0.89888c0,-0.22472 -0.23194,-0.22472 -0.23194,-0.44944c0,-0.44944 -0.29988,-0.51526 -0.46389,-0.67416c-0.16401,-0.1589 -0.17864,-0.23073 -0.23194,-0.44944c-0.11916,-0.48904 -0.29986,-0.51526 -0.46387,-0.67416c-0.16401,-0.1589 -0.21283,-0.31165 -0.46389,-0.89888c-0.08876,-0.20761 -0.23194,-0.44944 -0.23194,-0.67416c0,-0.44944 -0.14317,-0.69126 -0.23194,-0.89888c-0.12552,-0.29361 -0.69582,-0.67416 -0.69582,-0.89888c0,-0.22472 -0.19478,-0.22762 -0.23194,-0.44944c-0.11749,-0.70145 -0.46387,-0.89888 -0.46387,-1.1236c0,-0.44944 -0.37513,-0.46655 -0.46389,-0.67416c-0.12552,-0.29361 -0.29986,-0.29054 -0.46387,-0.44944c-0.32801,-0.3178 -0.06793,-0.51526 -0.23194,-0.67416c-0.32802,-0.31781 -0.53181,-0.06582 -0.69582,-0.22472c-0.16401,-0.1589 -0.23194,-0.22472 -0.46387,-0.22472c-0.46389,0 -0.53181,-0.29054 -0.69582,-0.44944c-0.16401,-0.1589 -0.29986,-0.06582 -0.46387,-0.22472c-0.16401,-0.1589 -0.39278,-0.32782 -0.69582,-0.44944c-0.21428,-0.08599 -0.13587,-0.13164 -0.46387,-0.44944c-0.32802,-0.31781 -0.76375,0.1589 -0.92776,0c-0.16401,-0.1589 -0.23194,-0.22472 -0.69582,-0.22472c-0.23194,0 -0.29986,-0.06582 -0.46387,-0.22472c-0.16401,-0.1589 -0.69581,0 -0.92776,0c-0.23194,0 -0.46387,0 -0.92774,0c-0.23195,0 -0.46389,0 -0.69582,0c-0.46387,0 -0.69582,0 -0.92776,0c-0.23194,0 -0.69581,0 -0.92776,0c-0.23194,0 -0.46387,0 -0.92774,0c-0.23194,0 -0.53181,-0.1589 -0.69582,0c-0.16401,0.1589 -0.13587,0.35636 -0.46387,0.67416c-0.16401,0.1589 -0.29988,0.06582 -0.46389,0.22472c-0.16401,0.1589 -0.6247,0.32782 -0.92774,0.44944c-0.2143,0.086 -0.16084,0.55254 -0.46389,0.67416c-0.42856,0.17199 -0.39277,0.32782 -0.69581,0.44944c-0.2143,0.086 -0.29988,0.29054 -0.46389,0.44944c-0.16401,0.1589 -0.57029,0.38055 -0.69581,0.67416c-0.17752,0.41523 -0.23194,0.44944 -0.23194,0.67416c0,0.22472 -0.06794,0.29054 -0.23195,0.44944c-0.32801,0.31779 -0.5318,0.29054 -0.69581,0.44944c-0.16401,0.1589 -0.06793,0.51525 -0.23194,0.67416c-0.16401,0.15891 -0.42316,0.24672 -0.69582,0.67416c-0.12194,0.19116 0.09607,0.58108 -0.23194,0.89888c-0.16401,0.1589 -0.33835,0.15582 -0.46389,0.44944c-0.08876,0.20761 -0.37511,0.69126 -0.46387,0.89888c-0.12552,0.29361 -0.34471,0.40983 -0.46387,0.89888c-0.05329,0.21871 -0.06794,0.51526 -0.23195,0.67416c-0.32801,0.31779 -0.29986,0.51526 -0.46387,0.67416c-0.16401,0.1589 -0.17864,0.23073 -0.23194,0.44944c-0.11916,0.48904 -0.33835,0.60527 -0.46387,0.89888c-0.08876,0.20761 -0.46389,0.67416 -0.46389,0.89888c0,0.22472 -0.23194,0.22472 -0.23194,0.44944c0,0.44944 -0.06793,0.73997 -0.23194,0.89888c-0.16401,0.1589 0.09607,0.35636 -0.23194,0.67416c-0.32802,0.31781 -0.29988,0.29054 -0.46389,0.44944c-0.16401,0.1589 0.09607,0.35636 -0.23194,0.67416c-0.16401,0.1589 -0.14317,0.24183 -0.23194,0.44944c-0.12552,0.29361 -0.06793,0.73997 -0.23194,0.89888c-0.32802,0.31781 -0.46389,0.22472 -0.46389,0.44944c0,0.44944 -0.23194,0.44944 -0.23194,0.67416c0,0.22472 -0.23194,0.22472 -0.23194,0.44944c0,0.44944 -0.23194,0.44944 -0.23194,0.67416c0,0.22472 -0.46389,0.22472 -0.46389,0.44944c0,0.44944 -0.23194,0.44944 -0.23194,0.67416c0,0.22472 -0.23194,0.44944 -0.23194,0.89888c0,0.22472 -0.06793,0.29054 -0.23194,0.44944c-0.32802,0.31781 -0.46389,0.22472 -0.46389,0.67416c0,0.22472 -0.06793,0.29054 -0.23194,0.44944c-0.16401,0.1589 0.09607,0.35635 -0.23194,0.67416c-0.16401,0.1589 -0.3678,-0.09309 -0.69582,0.22472c-0.16401,0.1589 -0.06793,0.29054 -0.23194,0.44944c-0.32801,0.3178 -0.14317,0.46655 -0.23194,0.67416c-0.12552,0.29361 -0.3678,0.13163 -0.69582,0.44944c-0.32801,0.3178 -0.06793,0.51526 -0.23194,0.67416c-0.16401,0.1589 -0.23194,0.22472 -0.23194,0.44944c0,0.44944 0,0.67416 -0.23194,0.67416l0,0.22472l-0.46389,0" id="svg_6" stroke-width="3" fill="none"/>
 </g>
</svg>